<svg xmlns="http://www.w3.org/2000/svg" xmlns:xlink="http://www.w3.org/1999/xlink" width="2000" zoomAndPan="magnify" viewBox="0 0 1500 1499.999933" height="2000" preserveAspectRatio="xMidYMid meet" version="1.0"><defs><g/><clipPath id="f5c6db24b3"><path d="M 373.507812 210.75 L 1126.507812 210.75 L 1126.507812 963.75 L 373.507812 963.75 Z M 373.507812 210.75 " clip-rule="nonzero"/></clipPath><clipPath id="100b40bb5c"><rect x="0" width="969" y="0" height="344"/></clipPath></defs><path fill="#754c24" d="M 896.257812 647.980469 L 916.074219 639.960938 L 921.027344 637.953125 C 922.757812 637.335938 924.25 636.355469 925.496094 635.003906 C 927.964844 632.320312 929.742188 629.238281 930.828125 625.757812 C 931.386719 624.03125 931.640625 622.261719 931.59375 620.449219 L 931.59375 615.101562 L 931.625 604.410156 L 931.695312 583.035156 L 931.820312 540.28125 L 932.082031 454.773438 L 932.082031 454.464844 L 931.777344 454.527344 C 909.84375 459.421875 888.464844 466.09375 867.640625 474.542969 C 846.816406 482.992188 826.835938 493.101562 807.691406 504.875 C 801.308594 508.785156 795.023438 512.808594 788.867188 517.050781 C 787.332031 518.128906 785.773438 519.089844 784.246094 520.265625 C 782.808594 521.539062 781.609375 523.007812 780.648438 524.667969 C 778.75 527.929688 777.453125 531.585938 777.3125 535.425781 L 777.652344 535.425781 L 777.242188 696.027344 L 777.242188 696.144531 L 777.355469 696.101562 L 856.617188 664.019531 Z M 789.554688 606.996094 C 807.578125 591.769531 827.71875 579.144531 848.976562 568.949219 C 870.230469 558.75 892.414062 550.90625 915.027344 544.527344 C 915.15625 546.53125 915.367188 548.523438 915.605469 550.503906 C 915.726562 551.558594 915.851562 552.613281 915.933594 553.667969 C 915.976562 554.1875 915.996094 554.707031 915.984375 555.226562 C 915.984375 555.683594 915.855469 556.300781 915.699219 556.394531 L 915.847656 556.699219 L 795.539062 614.742188 Z M 789.554688 606.996094 " fill-opacity="1" fill-rule="nonzero"/><path fill="#754c24" d="M 558.25 585.839844 L 558.300781 607.558594 L 558.328125 618.414062 L 558.328125 623.847656 C 558.207031 625.726562 558.664062 627.460938 559.695312 629.039062 C 561.6875 632.152344 564.261719 634.671875 567.410156 636.605469 C 570.601562 638.34375 573.972656 639.671875 577.242188 641.222656 L 596.996094 650.234375 L 636.507812 668.246094 L 676.019531 686.265625 L 695.808594 695.277344 L 705.6875 699.785156 L 708.15625 700.90625 C 708.996094 701.378906 709.894531 701.5625 710.851562 701.46875 C 712.699219 701.296875 714.40625 700.609375 716.171875 700.359375 L 716.320312 700.335938 L 716.320312 700.191406 L 716.09375 613.589844 L 715.980469 570.269531 L 715.925781 548.617188 C 715.867188 545.003906 716.015625 541.417969 715.789062 537.78125 C 715.359375 534.132812 714.347656 530.65625 712.753906 527.351562 C 711.183594 524.089844 709.199219 520.964844 706.492188 518.484375 C 705.125 517.238281 703.574219 516.3125 702.101562 515.292969 L 697.625 512.238281 L 688.507812 506.359375 L 679.214844 500.796875 C 666.691406 493.570312 653.789062 487.109375 640.503906 481.414062 C 627.214844 475.726562 613.667969 470.730469 599.867188 466.425781 C 592.976562 464.265625 586.035156 462.289062 579.0625 460.410156 L 568.574219 457.726562 C 565.0625 456.890625 561.46875 456.113281 557.957031 455.371094 L 557.957031 455.585938 L 558.164062 542.417969 Z M 578.820312 520.855469 C 599.992188 527.871094 621.566406 533.726562 642.273438 542.023438 C 652.636719 546.179688 662.765625 550.972656 672.304688 556.773438 L 679.339844 561.304688 L 686.105469 566.230469 L 692.5625 571.542969 L 698.585938 577.058594 L 698.792969 577.246094 L 695.441406 583.558594 L 574.082031 530.261719 Z M 608.367188 594.410156 C 619.886719 596.847656 631.070312 600.359375 641.914062 604.945312 C 652.730469 609.503906 663.234375 614.867188 672.960938 621.4375 C 677.859375 624.691406 682.429688 628.351562 686.667969 632.429688 C 690.628906 636.492188 694.515625 641.09375 695.789062 646.707031 L 573.726562 593.210938 L 573.589844 593.152344 C 585.101562 590.945312 596.96875 592.117188 608.367188 594.410156 Z M 608.367188 594.410156 " fill-opacity="1" fill-rule="nonzero"/><g clip-path="url(#f5c6db24b3)"><path fill="#754c24" d="M 994.738281 864.316406 C 922.269531 847.175781 847.902344 837.648438 773.398438 837.214844 L 788.070312 831.492188 L 787.953125 831.175781 C 806.484375 824.609375 825.34375 818.925781 844.589844 814.882812 C 863.855469 811.003906 883.347656 808.148438 902.957031 806.925781 C 922.601562 805.75 942.246094 805.773438 961.890625 806.992188 C 981.515625 808.339844 1001.027344 810.671875 1020.417969 813.980469 C 1029.175781 815.539062 1037.902344 817.234375 1046.605469 819.070312 C 1049.71875 815.097656 1052.75 811.058594 1055.695312 806.949219 C 1053.179688 806.285156 1050.679688 805.617188 1048.128906 804.980469 C 1020.3125 797.851562 991.761719 793.175781 963.019531 792.148438 C 934.292969 791.042969 905.503906 793.515625 877.097656 797.742188 C 849.28125 801.902344 821.738281 807.582031 794.304688 813.703125 C 797.617188 811.679688 800.914062 809.625 804.191406 807.542969 C 808.003906 805.140625 811.832031 802.765625 815.886719 800.84375 L 815.742188 800.539062 C 842.902344 787.796875 871.3125 777.667969 900.558594 770.929688 C 904.207031 769.972656 907.855469 769.3125 911.5625 768.613281 L 922.613281 766.507812 L 933.753906 764.953125 C 937.46875 764.4375 941.175781 763.859375 944.917969 763.609375 C 952.390625 762.949219 959.855469 762.1875 967.359375 762.074219 C 971.105469 761.972656 974.855469 761.714844 978.601562 761.746094 L 989.847656 761.910156 C 1019.152344 762.457031 1048.28125 767.144531 1076.570312 774.679688 C 1084.734375 760.488281 1091.933594 745.824219 1098.175781 730.6875 C 1104.414062 715.550781 1109.640625 700.074219 1113.855469 684.253906 C 1118.066406 668.433594 1121.230469 652.40625 1123.339844 636.171875 C 1125.453125 619.933594 1126.496094 603.632812 1126.472656 587.261719 C 1126.472656 379.324219 957.910156 210.765625 749.976562 210.765625 C 542.042969 210.765625 373.488281 379.269531 373.488281 587.207031 C 373.464844 603.441406 374.488281 619.609375 376.566406 635.710938 C 378.640625 651.8125 381.75 667.714844 385.894531 683.410156 C 390.035156 699.109375 395.175781 714.472656 401.316406 729.503906 C 407.457031 744.53125 414.542969 759.101562 422.574219 773.210938 C 436.746094 770.1875 451.046875 767.792969 465.4375 766.175781 C 481.460938 764.410156 497.535156 763.648438 513.652344 763.894531 C 521.703125 763.894531 529.738281 764.449219 537.773438 764.917969 C 545.792969 765.667969 553.8125 766.375 561.773438 767.570312 C 577.703125 769.847656 593.546875 772.867188 609.097656 777.066406 C 624.648438 781.269531 640.089844 786.023438 655.210938 791.460938 C 662.789062 794.195312 670.214844 797.304688 677.480469 800.789062 L 688.332031 806.089844 L 693.75 808.761719 L 696.488281 810.085938 C 697.289062 810.519531 698.140625 810.824219 699.035156 811 L 699.539062 811.136719 L 699.585938 811.171875 L 699.351562 811.113281 C 643.800781 797.027344 586.191406 790.210938 528.875 793.371094 C 499.980469 794.929688 471.441406 798.984375 443.253906 805.53125 C 445.867188 809.179688 448.5625 812.800781 451.296875 816.367188 C 461.550781 814.238281 471.859375 812.414062 482.222656 810.894531 C 522.859375 805.035156 564.28125 804.449219 605.007812 809.691406 C 645.710938 814.746094 685.21875 826.175781 725.222656 834.988281 L 724.335938 842.113281 L 724.304688 842.363281 C 722.972656 842.3125 721.640625 842.292969 720.3125 842.25 C 684.042969 841.078125 647.847656 842.273438 611.734375 845.828125 C 574.21875 849.5625 537.074219 855.59375 500.304688 863.921875 C 498.804688 864.261719 497.3125 864.621094 495.820312 864.96875 C 562.796875 926.273438 652.015625 963.703125 749.984375 963.703125 C 847.261719 963.703125 935.910156 926.804688 1002.730469 866.253906 C 1000.066406 865.605469 997.402344 864.945312 994.738281 864.316406 Z M 1017.992188 712.84375 L 1018.105469 712.84375 L 1018.105469 712.730469 L 1018.179688 502.699219 C 1023.757812 501.183594 1029.511719 499.875 1035.292969 500.214844 C 1038.238281 500.339844 1041.007812 501.101562 1043.605469 502.492188 C 1046.179688 503.863281 1048.039062 506.265625 1049.367188 508.808594 C 1051.984375 514.035156 1052.460938 520.046875 1052.558594 525.851562 C 1052.558594 531.695312 1052.292969 537.574219 1052.234375 543.433594 C 1051.808594 566.890625 1051.878906 590.347656 1052.035156 613.804688 C 1052.1875 637.261719 1052.445312 660.71875 1052.398438 684.175781 L 1052.398438 754.246094 C 1030.714844 754.246094 1009.050781 753.140625 987.363281 752.671875 C 965.589844 752.214844 943.707031 752.429688 922.085938 755.53125 L 922.136719 755.863281 C 900.785156 758.949219 879.984375 764.878906 859.472656 771.425781 C 839.039062 777.964844 818.796875 785.105469 798.226562 791.226562 C 813.984375 779.339844 830.585938 768.769531 848.023438 759.515625 C 865.460938 750.261719 883.515625 742.4375 902.195312 736.050781 C 939.511719 723.144531 978.667969 716.046875 1017.988281 712.84375 Z M 755.0625 521.808594 C 755.027344 516.941406 757.832031 512.617188 760.769531 508.902344 C 763.84375 505.15625 767.304688 501.8125 771.152344 498.867188 C 778.96875 493.195312 786.953125 487.722656 795.15625 482.613281 C 811.539062 472.292969 828.542969 463.128906 846.164062 455.109375 C 863.804688 447.132812 881.890625 440.355469 900.429688 434.777344 C 909.667969 431.9375 919.042969 429.539062 928.433594 427.289062 C 937.78125 425.292969 947.367188 424.625 956.84375 423.230469 L 956.523438 543.660156 L 956.363281 604.015625 L 956.28125 634.191406 L 956.28125 645.507812 C 956.210938 646.734375 955.90625 647.898438 955.371094 649.003906 C 954.316406 651.269531 952.921875 653.300781 951.1875 655.101562 C 949.488281 656.84375 947.496094 658.574219 945.160156 659.078125 L 945.21875 659.410156 C 927.445312 662.425781 909.996094 666.757812 892.875 672.40625 C 875.753906 678.054688 859.152344 684.957031 843.074219 693.113281 C 810.976562 709.324219 781.390625 730.203125 754.238281 753.726562 Z M 646.585938 456.1875 C 664.417969 463.867188 681.625 472.769531 698.195312 482.886719 C 702.300781 485.433594 706.472656 487.933594 710.480469 490.636719 L 716.546875 494.644531 L 722.496094 498.824219 C 724.453125 500.242188 726.5 501.558594 728.390625 503.058594 C 730.226562 504.644531 731.753906 506.484375 732.976562 508.582031 C 735.417969 512.796875 737.125 517.289062 738.09375 522.066406 C 739.1875 526.789062 739.050781 531.640625 739.25 536.507812 L 739.601562 551.042969 C 739.792969 560.738281 739.890625 570.433594 739.945312 580.128906 L 739.945312 754.148438 C 711.871094 731.238281 681.765625 710.664062 649.433594 694.203125 C 633.191406 685.878906 616.457031 678.703125 599.230469 672.667969 C 582.007812 666.636719 564.453125 661.808594 546.566406 658.179688 L 546.496094 658.511719 C 544.050781 657.886719 542.179688 656.011719 540.570312 654.164062 C 538.945312 652.253906 537.644531 650.140625 536.667969 647.832031 C 536.171875 646.679688 535.851562 645.480469 535.699219 644.238281 C 535.597656 643 535.667969 641.753906 535.640625 640.507812 L 535.640625 633.035156 L 535.585938 603.152344 L 535.472656 543.382812 L 535.230469 423.957031 C 573.433594 430.339844 611.019531 440.800781 646.585938 456.1875 Z M 679.117188 785.351562 C 642.253906 769.925781 603.421875 759.09375 563.707031 754.226562 C 522.722656 749.113281 481.039062 750.3125 440.28125 756.867188 L 440.390625 613.03125 L 440.449219 541.058594 L 440.492188 523.070312 C 440.53125 520.074219 440.613281 517.078125 440.832031 514.09375 C 441.128906 511.136719 441.480469 508.117188 442.703125 505.429688 C 443.882812 502.644531 446.664062 500.972656 449.578125 500.472656 C 452.546875 500.074219 455.523438 500.015625 458.507812 500.300781 C 464.433594 500.757812 470.304688 501.640625 476.183594 502.472656 L 476.113281 712.6875 L 476.113281 712.933594 L 476.359375 712.933594 C 513.425781 714.8125 550.335938 721.507812 585.316406 734.003906 C 602.839844 740.242188 619.75 747.835938 636.058594 756.78125 L 648.128906 763.707031 L 659.925781 771.097656 L 671.433594 778.917969 C 675.082031 781.632812 678.730469 784.050781 682.570312 786.71875 L 682.746094 786.839844 C 681.542969 786.320312 680.320312 785.855469 679.117188 785.351562 Z M 743.285156 819.796875 C 711.269531 788.09375 675.007812 760.367188 634.726562 739.96875 C 614.5 729.675781 593.496094 721.351562 571.714844 714.988281 C 549.929688 708.652344 527.753906 704.292969 505.191406 701.90625 L 505.15625 702.238281 C 502.585938 701.871094 500.234375 700.652344 498.097656 699.238281 C 495.933594 697.8125 493.984375 696.140625 492.242188 694.222656 C 490.601562 692.300781 488.882812 690.117188 488.832031 687.46875 L 488.808594 679.714844 L 488.722656 648.761719 L 488.539062 586.859375 L 488.179688 463.128906 L 521.179688 463.128906 L 521.113281 668.976562 L 521.113281 669.109375 L 521.246094 669.132812 C 545.304688 673.359375 569.125 679.054688 592.265625 686.960938 C 603.878906 690.773438 615.214844 695.359375 626.46875 700.109375 C 637.613281 705.125 648.675781 710.3125 659.371094 716.21875 C 670.070312 722.125 680.617188 728.296875 690.78125 735.070312 C 701.035156 741.71875 710.878906 748.972656 720.535156 756.4375 C 730.007812 763.980469 738.953125 772.953125 743.359375 784.410156 C 745.558594 790.160156 746.546875 796.109375 746.328125 802.261719 C 746.15625 808.214844 744.96875 814.089844 743.285156 819.796875 Z M 751.726562 817.058594 C 749.960938 811.304688 748.777344 805.332031 748.726562 799.296875 C 748.613281 793.175781 749.789062 787.3125 752.257812 781.707031 C 757.167969 770.578125 766.164062 761.960938 775.429688 754.371094 L 782.40625 748.613281 C 784.75 746.714844 787.191406 744.9375 789.574219 743.089844 C 794.304688 739.347656 799.320312 735.988281 804.230469 732.488281 C 814.261719 725.78125 824.46875 719.332031 835.121094 713.667969 C 856.273438 702.050781 878.695312 692.859375 901.65625 685.480469 C 924.652344 678.183594 948.285156 672.992188 972.113281 669.273438 L 972.199219 669.273438 L 972.199219 669.1875 L 972.269531 463.65625 L 980.167969 462.871094 C 982.851562 462.609375 985.53125 462.351562 988.230469 462.585938 L 1004.21875 463.277344 L 1003.667969 585.113281 L 1003.257812 676.613281 L 1003.226562 684.238281 C 1003.199219 685.515625 1003.332031 686.8125 1002.894531 687.933594 C 1002.441406 689.105469 1001.804688 690.167969 1000.988281 691.125 C 997.714844 694.941406 993.429688 697.863281 988.894531 700.042969 C 986.613281 701.152344 984.214844 701.875 981.699219 702.210938 L 974.15625 703.367188 C 969.140625 704.074219 964.125 705.003906 959.109375 705.972656 C 954.09375 706.851562 949.136719 707.96875 944.179688 709.105469 C 939.199219 710.152344 934.285156 711.472656 929.363281 712.753906 C 909.664062 718.003906 890.488281 724.75 871.839844 732.992188 C 834.597656 749.433594 800.15625 772.070312 769.949219 799.347656 L 770.171875 799.597656 Z M 751.726562 817.058594 " fill-opacity="1" fill-rule="nonzero"/></g><g transform="matrix(1, 0, 0, 1, 268, 984)"><g clip-path="url(#100b40bb5c)"><g fill="#754c24" fill-opacity="1"><g transform="translate(3.08686, 266.74868)"><g><path d="M 16.765625 0 L 16.765625 -4.28125 C 21.816406 -5.8125 25.269531 -9.097656 27.125 -14.140625 C 28.988281 -19.179688 29.921875 -28.390625 29.921875 -41.765625 L 29.921875 -188.453125 C 29.921875 -202.046875 28.988281 -211.304688 27.125 -216.234375 C 25.269531 -221.171875 21.816406 -224.410156 16.765625 -225.953125 L 16.765625 -230.21875 L 93.734375 -230.21875 C 119.171875 -230.21875 137.425781 -226.328125 148.5 -218.546875 C 159.570312 -210.765625 165.109375 -200.1875 165.109375 -186.8125 C 165.109375 -175.625 161.160156 -165.425781 153.265625 -156.21875 C 145.367188 -147.007812 131.992188 -140.648438 113.140625 -137.140625 C 131.117188 -136.265625 145.804688 -132.976562 157.203125 -127.28125 C 168.609375 -121.582031 177.050781 -114.238281 182.53125 -105.25 C 188.007812 -96.257812 190.75 -86.390625 190.75 -75.640625 C 190.96875 -66.429688 189.210938 -57.332031 185.484375 -48.34375 C 181.765625 -39.351562 175.738281 -31.238281 167.40625 -24 C 159.070312 -16.769531 148.050781 -10.960938 134.34375 -6.578125 C 120.644531 -2.191406 103.816406 0 83.859375 0 Z M 56.890625 -33.546875 C 56.890625 -21.703125 57.984375 -13.972656 60.171875 -10.359375 C 62.367188 -6.742188 66.976562 -4.9375 74 -4.9375 L 86.828125 -4.9375 C 104.804688 -4.9375 119.164062 -7.617188 129.90625 -12.984375 C 140.65625 -18.359375 148.492188 -25.757812 153.421875 -35.1875 C 158.359375 -44.613281 160.828125 -55.359375 160.828125 -67.421875 C 160.828125 -80.140625 158.414062 -91.375 153.59375 -101.125 C 148.769531 -110.882812 141.148438 -118.613281 130.734375 -124.3125 C 120.316406 -130.019531 106.882812 -132.875 90.4375 -132.875 L 56.890625 -132.875 Z M 56.890625 -137.8125 L 87.484375 -137.8125 C 103.710938 -137.8125 115.71875 -141.972656 123.5 -150.296875 C 131.28125 -158.628906 135.171875 -168.828125 135.171875 -180.890625 C 135.171875 -194.484375 130.507812 -205.28125 121.1875 -213.28125 C 111.875 -221.289062 98.773438 -225.296875 81.890625 -225.296875 L 56.890625 -225.296875 Z M 56.890625 -137.8125 "/></g></g></g><g fill="#754c24" fill-opacity="1"><g transform="translate(204.359114, 266.74868)"><g><path d="M 96.359375 2.953125 C 84.085938 2.953125 72.632812 0.488281 62 -4.4375 C 51.363281 -9.375 43.085938 -15.019531 37.171875 -21.375 L 26.3125 0 L 23.015625 0 L 23.015625 -216.078125 C 23.015625 -223.753906 22.519531 -229.507812 21.53125 -233.34375 C 20.550781 -237.1875 19.128906 -239.984375 17.265625 -241.734375 C 15.398438 -243.484375 12.929688 -245.019531 9.859375 -246.34375 L 9.859375 -249.953125 L 45.71875 -265.75 L 48.671875 -263.4375 L 48.671875 -144.390625 C 57.441406 -150.304688 67.035156 -155.507812 77.453125 -160 C 87.867188 -164.5 98.773438 -166.75 110.171875 -166.75 C 124.210938 -166.75 136.601562 -163.296875 147.34375 -156.390625 C 158.082031 -149.484375 166.519531 -140 172.65625 -127.9375 C 178.800781 -115.875 181.875 -102.0625 181.875 -86.5 C 181.875 -71.375 178.582031 -57.007812 172 -43.40625 C 165.425781 -29.8125 155.78125 -18.738281 143.0625 -10.1875 C 130.34375 -1.644531 114.773438 2.734375 96.359375 2.953125 Z M 48.671875 -55.578125 C 48.671875 -47.691406 51.410156 -39.742188 56.890625 -31.734375 C 62.378906 -23.734375 69.5625 -17.046875 78.4375 -11.671875 C 87.320312 -6.304688 96.804688 -3.625 106.890625 -3.625 C 123.992188 -3.625 136.707031 -9.488281 145.03125 -21.21875 C 153.363281 -32.945312 157.53125 -48.347656 157.53125 -67.421875 C 157.53125 -76.628906 156.429688 -86.332031 154.234375 -96.53125 C 152.046875 -106.726562 148.484375 -116.320312 143.546875 -125.3125 C 138.617188 -134.300781 132.15625 -141.644531 124.15625 -147.34375 C 116.15625 -153.039062 106.34375 -155.890625 94.71875 -155.890625 C 86.164062 -155.890625 78.050781 -154.300781 70.375 -151.125 C 62.707031 -147.945312 55.472656 -144.054688 48.671875 -139.453125 Z M 48.671875 -55.578125 "/></g></g></g><g fill="#754c24" fill-opacity="1"><g transform="translate(397.080503, 266.74868)"><g><path d="M 98.015625 3.28125 C 87.484375 3.28125 77.117188 1.640625 66.921875 -1.640625 C 56.734375 -4.929688 47.472656 -9.972656 39.140625 -16.765625 C 30.804688 -23.566406 24.171875 -32.226562 19.234375 -42.75 C 14.304688 -53.28125 11.84375 -65.671875 11.84375 -79.921875 C 11.84375 -97.023438 15.894531 -112.097656 24 -125.140625 C 32.113281 -138.191406 42.75 -148.390625 55.90625 -155.734375 C 69.0625 -163.078125 83.097656 -166.75 98.015625 -166.75 C 108.316406 -166.75 118.507812 -165.15625 128.59375 -161.96875 C 138.675781 -158.789062 147.882812 -153.800781 156.21875 -147 C 164.550781 -140.207031 171.238281 -131.550781 176.28125 -121.03125 C 181.320312 -110.507812 183.84375 -97.898438 183.84375 -83.203125 C 183.84375 -69.171875 181.265625 -56.78125 176.109375 -46.03125 C 170.960938 -35.289062 164.113281 -26.25 155.5625 -18.90625 C 147.007812 -11.5625 137.691406 -6.023438 127.609375 -2.296875 C 117.523438 1.421875 107.660156 3.28125 98.015625 3.28125 Z M 37.171875 -98.671875 C 37.171875 -88.140625 38.8125 -77.335938 42.09375 -66.265625 C 45.382812 -55.191406 50.097656 -44.941406 56.234375 -35.515625 C 62.378906 -26.085938 69.78125 -18.414062 78.4375 -12.5 C 87.101562 -6.582031 96.914062 -3.625 107.875 -3.625 C 119.71875 -3.625 129.363281 -6.414062 136.8125 -12 C 144.269531 -17.59375 149.804688 -24.992188 153.421875 -34.203125 C 157.046875 -43.410156 158.859375 -53.28125 158.859375 -63.8125 C 158.859375 -74.332031 157.101562 -85.347656 153.59375 -96.859375 C 150.082031 -108.367188 145.09375 -119.054688 138.625 -128.921875 C 132.15625 -138.785156 124.425781 -146.675781 115.4375 -152.59375 C 106.445312 -158.519531 96.582031 -161.15625 85.84375 -160.5 C 74.65625 -160.0625 65.441406 -156.988281 58.203125 -151.28125 C 50.972656 -145.582031 45.660156 -138.128906 42.265625 -128.921875 C 38.867188 -119.710938 37.171875 -109.628906 37.171875 -98.671875 Z M 37.171875 -98.671875 "/></g></g></g><g fill="#754c24" fill-opacity="1"><g transform="translate(591.775186, 266.74868)"><g><path d="M 98.015625 3.28125 C 87.484375 3.28125 77.117188 1.640625 66.921875 -1.640625 C 56.734375 -4.929688 47.472656 -9.972656 39.140625 -16.765625 C 30.804688 -23.566406 24.171875 -32.226562 19.234375 -42.75 C 14.304688 -53.28125 11.84375 -65.671875 11.84375 -79.921875 C 11.84375 -97.023438 15.894531 -112.097656 24 -125.140625 C 32.113281 -138.191406 42.75 -148.390625 55.90625 -155.734375 C 69.0625 -163.078125 83.097656 -166.75 98.015625 -166.75 C 108.316406 -166.75 118.507812 -165.15625 128.59375 -161.96875 C 138.675781 -158.789062 147.882812 -153.800781 156.21875 -147 C 164.550781 -140.207031 171.238281 -131.550781 176.28125 -121.03125 C 181.320312 -110.507812 183.84375 -97.898438 183.84375 -83.203125 C 183.84375 -69.171875 181.265625 -56.78125 176.109375 -46.03125 C 170.960938 -35.289062 164.113281 -26.25 155.5625 -18.90625 C 147.007812 -11.5625 137.691406 -6.023438 127.609375 -2.296875 C 117.523438 1.421875 107.660156 3.28125 98.015625 3.28125 Z M 37.171875 -98.671875 C 37.171875 -88.140625 38.8125 -77.335938 42.09375 -66.265625 C 45.382812 -55.191406 50.097656 -44.941406 56.234375 -35.515625 C 62.378906 -26.085938 69.78125 -18.414062 78.4375 -12.5 C 87.101562 -6.582031 96.914062 -3.625 107.875 -3.625 C 119.71875 -3.625 129.363281 -6.414062 136.8125 -12 C 144.269531 -17.59375 149.804688 -24.992188 153.421875 -34.203125 C 157.046875 -43.410156 158.859375 -53.28125 158.859375 -63.8125 C 158.859375 -74.332031 157.101562 -85.347656 153.59375 -96.859375 C 150.082031 -108.367188 145.09375 -119.054688 138.625 -128.921875 C 132.15625 -138.785156 124.425781 -146.675781 115.4375 -152.59375 C 106.445312 -158.519531 96.582031 -161.15625 85.84375 -160.5 C 74.65625 -160.0625 65.441406 -156.988281 58.203125 -151.28125 C 50.972656 -145.582031 45.660156 -138.128906 42.265625 -128.921875 C 38.867188 -119.710938 37.171875 -109.628906 37.171875 -98.671875 Z M 37.171875 -98.671875 "/></g></g></g><g fill="#754c24" fill-opacity="1"><g transform="translate(786.469868, 266.74868)"><g><path d="M 12.171875 0 L 12.171875 -4.28125 C 17.210938 -5.8125 20.664062 -9.097656 22.53125 -14.140625 C 24.394531 -19.179688 25.328125 -28.390625 25.328125 -41.765625 L 25.328125 -216.078125 C 25.328125 -223.753906 24.832031 -229.507812 23.84375 -233.34375 C 22.851562 -237.1875 21.425781 -239.984375 19.5625 -241.734375 C 17.695312 -243.484375 15.234375 -245.019531 12.171875 -246.34375 L 12.171875 -249.953125 L 48.015625 -265.75 L 50.984375 -263.4375 L 50.984375 -71.375 L 108.203125 -126.296875 C 118.953125 -136.816406 125.3125 -145.035156 127.28125 -150.953125 C 129.25 -156.878906 128.375 -160.609375 124.65625 -162.140625 L 124.65625 -164.4375 L 163.453125 -164.4375 L 163.453125 -160.171875 C 158.628906 -158.640625 153.148438 -156.445312 147.015625 -153.59375 C 140.878906 -150.738281 132.984375 -144.707031 123.328125 -135.5 L 99.65625 -112.484375 L 138.140625 -43.078125 C 144.492188 -31.679688 150.519531 -22.421875 156.21875 -15.296875 C 161.925781 -8.171875 168.503906 -4.390625 175.953125 -3.953125 L 175.953125 0 L 154.578125 0 C 146.460938 0 139.28125 -2.90625 133.03125 -8.71875 C 126.78125 -14.53125 119.601562 -24.78125 111.5 -39.46875 L 81.5625 -95.046875 L 50.984375 -65.453125 L 50.984375 -41.765625 C 50.984375 -28.390625 51.910156 -19.179688 53.765625 -14.140625 C 55.628906 -9.097656 59.085938 -5.8125 64.140625 -4.28125 L 64.140625 0 Z M 12.171875 0 "/></g></g></g></g></g></svg>